# xmcd
#
# Track frame offsets: 
#        182
#        23790
#        40885
#        54442
#        71362
#        88887
#        108137
#        125425
#        145047
#        159202
#        187097
#        205612
#        224592
#
# Disc length: 3271 seconds
#
# Revision: 4
# Processed by: cddbd v1.5.1PL0 Copyright (c) Steve Scherf et al.
# Submitted via: ExactAudioCopy v0.95a5
#
DISCID=b10cc50d
DTITLE=Various Artist - Songbook 1
DYEAR=1992
DGENRE=MPB
TTITLE0=Tim Maia - Aquele abraço
TTITLE1=Djavan - Drão
TTITLE2=Chico Buarque - Ensaio Geral
TTITLE3=Gal Costa and Marco Pereira - A linha e o linho
TTITLE4=Emílio Santiago - Amor até o fim
TTITLE5=Angela Rô Rô and Antonio Adolfo - Deixar você
TTITLE6=Ney Matogrosso - Pai e mãe
TTITLE7=Geraldo Azevedo and Oswaldinho - Soy loco por ti, América
TTITLE8=Beth Carvalho and Geraldo Vespar - Mancada
TTITLE9=Flávio Venturini - Retiros Espirituais
TTITLE10=Elba Ramalho and Dominguinhos - De onde vem o baião
TTITLE11=Leny Andrade - Mar de Copacabana
TTITLE12=Fafá de Belém and Wagner Tiso - Preciso aprender a só ser
EXTD=YEAR: 1992
EXTT0=
EXTT1=
EXTT2=
EXTT3=
EXTT4=
EXTT5=
EXTT6=
EXTT7=
EXTT8=
EXTT9=
EXTT10=
EXTT11=
EXTT12=
PLAYORDER=
